<?xml version="1.0" encoding="utf-8"?>
<!-- Generator: Adobe Illustrator 26.3.1, SVG Export Plug-In . SVG Version: 6.00 Build 0)  -->
<svg version="1.2" baseProfile="tiny" id="g-Benches-In-Greenpoint-Artboard_1-interactions-img" xmlns="http://www.w3.org/2000/svg" xmlns:xlink="http://www.w3.org/1999/xlink"
	 x="0px" y="0px" viewBox="0 0 600 519" overflow="visible" xml:space="preserve">
<g>
	<g id="MARKERS_00000018221086964298750930000009850768964744590473_">
		<g id="BBQ_PIT_MARKERS_00000116955508316711816920000016384517028570547099_">
			<path fill="#333333" d="M264,371c0,4.971-4.029,9-9,9c-4.971,0-9-4.029-9-9s4.029-9,9-9C259.971,362,264,366.029,264,371z"/>
		</g>
		<g id="SHADY_BENCHS_MARKER_00000082338095420963062730000011921221759639507639_">
			<path fill="#333333" d="M283,378c0,4.971-4.029,9-9,9s-9-4.029-9-9s4.029-9,9-9S283,373.029,283,378z"/>
		</g>
		<g id="BASEBALL_MARKER_00000103247981727285325360000018320750152219263926_">
			<path fill="#333333" d="M230,386c0,4.971-4.029,9-9,9s-9-4.029-9-9s4.029-9,9-9S230,381.029,230,386z"/>
		</g>
		<g id="Rear_End_of_McCarren_MARKER_00000150805836336861178260000011037040828164489129_">
			<path fill="#333333" d="M268,448c0,4.971-4.029,9-9,9c-4.971,0-9-4.029-9-9s4.029-9,9-9C263.971,439,268,443.029,268,448z"/>
		</g>
		<g id="BQE_MARKER_00000080886449686214931110000015271967793513650060_">
			<path fill="#333333" d="M371,403c0,4.971-4.029,9-9,9s-9-4.029-9-9s4.029-9,9-9S371,398.029,371,403z"/>
		</g>
		<g id="LENTOL_GARDENS_MARKER_00000129917562067347072140000008990521207667294877_">
			<path fill="#333333" d="M369,412c0,4.971-4.029,9-9,9s-9-4.029-9-9s4.029-9,9-9S369,407.029,369,412z"/>
		</g>
		<g id="MIDDLE_McGOLRICK_MARKER_00000173878943944373482570000003100624245244209066_">
			<path fill="#333333" d="M392,342c0,4.971-4.029,9-9,9s-9-4.029-9-9s4.029-9,9-9S392,337.029,392,342z"/>
		</g>
		<g id="DOG_PARK_MARKER_00000097481415803424282930000007839326546169002380_">
			<path fill="#333333" d="M387,357c0,4.971-4.029,9-9,9s-9-4.029-9-9s4.029-9,9-9S387,352.029,387,357z"/>
		</g>
		<g id="PLAYGROUND_MARKER_00000117640832077718844530000012709393045320381372_">
			<path fill="#333333" d="M385,330c0,4.971-4.029,9-9,9s-9-4.029-9-9s4.029-9,9-9S385,325.029,385,330z"/>
		</g>
		<g id="SCHOOL_SIDE_MARKER_00000126301338827960756840000009931480121863060891_">
			<path fill="#333333" d="M406,356c0,4.971-4.029,9-9,9s-9-4.029-9-9s4.029-9,9-9S406,351.029,406,356z"/>
		</g>
		<g id="VARIETY_MARKER_00000178897425576536584430000018219320812848645793_">
			<path fill="#333333" d="M381,360c0,4.971-4.029,9-9,9s-9-4.029-9-9s4.029-9,9-9S381,355.029,381,360z"/>
		</g>
		<g id="THE_PALACE_MARKER_00000094611494786813391390000005258594910039010237_">
			<path fill="#333333" d="M376,329c0,4.971-4.029,9-9,9s-9-4.029-9-9s4.029-9,9-9S376,324.029,376,329z"/>
		</g>
		<g id="K_BRIDGE_MARKER_00000152253895823846391070000009679633289504495256_">
			<path fill="#333333" d="M477,342c0,4.971-4.029,9-9,9s-9-4.029-9-9s4.029-9,9-9S477,337.029,477,342z"/>
		</g>
		<g id="PRIVATE_BENCH_00000020401046903048961620000008593264672985656209_">
			<path fill="#333333" d="M424,296c0,4.971-4.029,9-9,9s-9-4.029-9-9s4.029-9,9-9S424,291.029,424,296z"/>
		</g>
		<g id="BAGEL_STORE_MARKER_00000069391656828791368450000003516960592668881825_">
			<path fill="#333333" d="M363,288c0,4.971-4.029,9-9,9s-9-4.029-9-9s4.029-9,9-9S363,283.029,363,288z"/>
		</g>
		<g id="BANK_STOOP_MARKER_00000165933878735374368000000012330758210990338225_">
			<path fill="#333333" d="M255,277c0,4.971-4.029,9-9,9s-9-4.029-9-9s4.029-9,9-9S255,272.029,255,277z"/>
		</g>
		<g id="SHIT_TITS_MARKER_00000037676835195709491410000012708030086829585322_">
			<path fill="#333333" d="M314,130c0,4.971-4.029,9-9,9s-9-4.029-9-9s4.029-9,9-9S314,125.029,314,130z"/>
		</g>
		<g id="OLD_FERRY_PIER_MARKER_00000029742958794398610220000018208997812533517759_">
			<path fill="#333333" d="M134,217c0,4.971-4.029,9-9,9s-9-4.029-9-9s4.029-9,9-9S134,212.029,134,217z"/>
		</g>
		<g id="GREENPOINT_MARKER_00000130618668247756272050000000926740282348734108_">
			<path fill="#333333" d="M142,207c0,4.971-4.029,9-9,9s-9-4.029-9-9s4.029-9,9-9S142,202.029,142,207z"/>
		</g>
		<g id="BLUE_SLIP_BUSY_MARKER_00000160179020962926442240000016408121537241738169_">
			<path fill="#333333" d="M154,141c0,4.971-4.029,9-9,9s-9-4.029-9-9s4.029-9,9-9S154,136.029,154,141z"/>
		</g>
		<g id="BLUE_SLIP_QUIET_MARKER_00000059288950828226314670000002193096132667641526_">
			<path fill="#333333" d="M176,113c0,4.971-4.029,9-9,9s-9-4.029-9-9s4.029-9,9-9S176,108.029,176,113z"/>
		</g>
		<g id="END_OF_THE_LINE_MARKER_00000065776328121931472490000008560913742000282556_">
			<path fill="#333333" d="M231,83c0,4.971-4.029,9-9,9s-9-4.029-9-9s4.029-9,9-9S231,78.029,231,83z"/>
		</g>
		<g id="TERMINAL_PARK_00000075880523438971078620000009335471119889828284_">
			<path fill="#333333" d="M154.708,247.154c0,4.971-4.029,9-9,9s-9-4.029-9-9s4.029-9,9-9S154.708,242.183,154.708,247.154z"/>
		</g>
		<g id="PULASKI_BRIDGE_MARKER_00000173857951146420870820000006053345874831482760_">
			<path d="M264,78c0,4.971-4.029,9-9,9c-4.971,0-9-4.029-9-9s4.029-9,9-9C259.971,69,264,73.029,264,78z"/>
		</g>
	</g>
	<path style="opacity:0.53;" fill="#E8E5D8" d="M570.677,286.229
		c-3.942-2.596-8.032-4.937-12.247-7.059c-10.381-3.602-21.082-5.991-31.921-7.983c-5.994-1.102-12.005-2.143-17.941-3.533
		c-10.748-2.517-20.631-6.707-30.737-11.266c-19.637-8.858-37.614-25.811-48.314-44.466c-8.41-14.663-14.082-30.857-20.22-46.674
		c-3.639-7.226-8.218-13.85-12.852-20.561c-0.947-1.372-1.908-2.743-2.865-4.115c-39.737-12.48-74.687-35.832-112.42-53.005
		c-11.453-4.356-23.105-7.636-35.138-9.828c-6.683-0.554-13.366-0.703-20.054-0.314c-6.529,1.382-12.921,3.262-19.197,5.538
		c-8.348,4.072-16.251,8.866-23.814,14.254c-8.544,7.036-16.789,14.426-25.317,21.484c-2.465,2.04-4.957,4.077-7.477,6.086
		c-1.93,4.778-4.115,9.54-6.533,14.345c-4.092,8.132-8.873,15.87-12.957,23.99c-1.417,3.978-2.707,8.03-3.891,12.126
		c3.299,10.325,4.823,21.327,5.269,31.844c0.068,1.608,0.064,3.219,0.025,4.831c17.725,34.72,12.193,73.92,6.189,110.873
		c-1.492,9.181-3.433,18.265-5.186,27.391c5.64,2.928,10.902,6.68,15.716,11.099c2.465,2.262,5.464,3.569,7.373,6.234
		c4.615,2.676,9.226,7.651,13.256,11.35c1.705,1.565,5.421,3.627,6.858,5.391c3.543,2.294,4.307,3.434,7.482,6.349
		c0.672,0.616,2.298,1.793,2.928,2.442c2.519,1.806,4.202,3.062,6.523,5.193c0.608,0.558,2.775,2.246,3.349,2.831
		c5.052,2.797,2.808,1.511,7.175,5.521c1.227,1.127,8.218-12.188,9.304-10.954c0.34,0.302,13.689-16.574,14.025-16.266l19.44-10.135
		l24.875-10.83l11.422-4.988l12.434,28.339l30.869,36.219l7.88,9.904l25.375-19.543l9.543,7.76l37.086-26.748l36.508-32.749
		l44.677-21.543l38.894-10.772c0,0,14.531-5.639,31.086-21.905C557.159,302.385,566.376,289.056,570.677,286.229"/>
	<polygon style="opacity:0.53;" fill="#D5E6B3" points="226.93,380.354 
		213.194,396.041 229.604,408.909 242.762,392.933 	"/>
	<path style="opacity:0.53;" fill="#D5E6B3" d="M245.821,417.66
		c2.045-0.234,4.08-0.404,6.118-0.469l4.125-4.956l27.544-21.399l0.361-0.578l-12.94-29.568l-40.412,49.376l10.438,8.195
		C242.639,418.047,244.227,417.843,245.821,417.66z"/>
	<path style="opacity:0.53;" fill="#D5E6B3" d="M282.692,421.58
		c1.917,0.68,3.808,1.383,5.677,2.113l-4.038-31.41l-25.809,20.459l0.594,4.716C266.943,418.172,275.214,418.925,282.692,421.58z"/>
	<polygon style="opacity:0.53;" fill="#D5E6B3" points="368.407,321.796 
		374.263,365.172 397.613,361.847 391.83,319.049 	"/>
	<path style="opacity:0.53;" fill="#D5E6B3" d="M310.501,435.103l1.879-0.241
		l-4.193-36.797l-5.277-5.639l-7.88-8.892l-9.326,7.374l4.139,33.369C297.132,427.208,304.039,430.633,310.501,435.103z"/>
	<polygon style="opacity:0.53;" fill="#94C1E1" points="297.271,409.922 297.777,414.042 300.596,413.681 301.68,421.488 
		298.355,421.922 298.933,425.971 306.163,425.175 304.138,409.199 	"/>
</g>
<style>
#g-Benches-In-Greenpoint-Artboard_1-interactions-img rect, #g-Benches-In-Greenpoint-Artboard_1-interactions-img circle, #g-Benches-In-Greenpoint-Artboard_1-interactions-img path, #g-Benches-In-Greenpoint-Artboard_1-interactions-img line, #g-Benches-In-Greenpoint-Artboard_1-interactions-img polyline, #g-Benches-In-Greenpoint-Artboard_1-interactions-img polygon { vector-effect: non-scaling-stroke; }
</style>
</svg>

